<svg width="64" height="64" viewBox="0 0 64 64" fill="none" xmlns="http://www.w3.org/2000/svg">
<g clip-path="url(#clip0_410_16617)">
<path d="M46.5187 47.2924C52.4072 36.0372 50.4369 23.3847 42.1179 19.0323C33.7988 14.6798 22.2813 20.2756 16.3927 31.5308C10.5041 42.786 12.4744 55.4385 20.7935 59.7909C29.1125 64.1433 40.6301 58.5475 46.5187 47.2924Z" fill="#EB8F4D"></path>
<path d="M46.5189 47.2916C50.6849 39.3296 50.8999 30.6826 47.7349 24.7546C40.1349 36.2336 26.9349 46.5546 29.6209 40.1186C31.8959 34.6626 33.6509 24.4846 34.0749 17.6816C27.4429 18.5166 20.5299 23.6236 16.3929 31.5296C10.5049 42.7846 12.4749 55.4376 20.7929 59.7896C29.1109 64.1416 40.6309 58.5466 46.5189 47.2916Z" fill="#EB8236"></path>
<path d="M22.2313 3.38618C21.9383 3.31618 21.6413 3.25518 21.3383 3.20218C19.0052 2.8073 16.6101 3.01021 14.3767 3.79195C12.1434 4.57369 10.1446 5.90875 8.56706 7.67243C6.98955 9.4361 5.8848 11.5708 5.35601 13.8772C4.82722 16.1836 4.89164 18.5864 5.54326 20.8612C6.41526 23.8902 8.64326 25.9882 9.22026 29.1182C10.0838 32.9917 10.238 36.9897 9.67526 40.9182C9.18226 43.5922 8.60126 46.9182 11.9203 47.9432L18.6993 49.4162C19.4353 49.6426 20.2216 49.6486 20.961 49.4334C21.7004 49.2182 22.3607 48.7912 22.8603 48.2052C23.9703 46.8922 24.3973 44.9632 24.9943 43.3802C25.8943 40.9802 26.7243 38.5612 27.6313 36.1662C29.6274 30.7846 31.123 25.2304 32.0993 19.5742C32.5985 17.2179 32.4847 14.7728 31.7688 12.4731C31.0529 10.1733 29.7588 8.09575 28.0103 6.43918C26.377 4.94367 24.3871 3.89245 22.2313 3.38618V3.38618Z" fill="#F9E3D1"></path>
<path d="M19.8549 47.59C19.6634 47.5903 19.4729 47.5617 19.2899 47.505L19.2079 47.479L12.4389 46.006C11.2809 45.621 10.9929 44.806 11.6439 41.278C12.2508 37.1118 12.0966 32.8701 11.1889 28.759C10.7787 26.9332 10.0506 25.1937 9.03791 23.62C8.38305 22.5831 7.85558 21.4711 7.46691 20.308C6.95465 18.5217 6.86423 16.6409 7.2028 14.8137C7.54136 12.9865 8.29965 11.2629 9.4179 9.77878C10.5362 8.29463 11.9838 7.09046 13.6468 6.26118C15.3098 5.43189 17.1426 5.00016 19.0009 5C19.6713 5.00007 20.3405 5.05795 21.0009 5.173C21.2609 5.21767 21.5176 5.27033 21.7709 5.331C23.6001 5.75491 25.2883 6.64551 26.6709 7.916C28.1717 9.34374 29.2792 11.1341 29.8867 13.1145C30.4941 15.0948 30.581 17.1983 30.1389 19.222C29.1868 24.7582 27.7211 30.1936 25.7609 35.458C25.2889 36.701 24.8399 37.952 24.3899 39.203C23.9739 40.363 23.5569 41.522 23.1219 42.675C22.9689 43.082 22.8219 43.511 22.6799 43.947C22.4046 45.0065 21.9486 46.0106 21.3319 46.915C21.1498 47.1284 20.9233 47.2994 20.6681 47.416C20.413 47.5326 20.1354 47.592 19.8549 47.59V47.59Z" fill="#CC2B2B"></path>
<path d="M3 46H61V50C61 52.9174 59.8411 55.7153 57.7782 57.7782C55.7153 59.8411 52.9174 61 50 61H14C11.0826 61 8.28473 59.8411 6.22183 57.7782C4.15893 55.7153 3 52.9174 3 50V46Z" fill="#F2E4DA"></path>
<path d="M50 59H14C11.0826 59 8.28473 57.8411 6.22183 55.7782C4.15893 53.7153 3 50.9174 3 48V50C3 52.9174 4.15893 55.7153 6.22183 57.7782C8.28473 59.8411 11.0826 61 14 61H50C52.9174 61 55.7153 59.8411 57.7782 57.7782C59.8411 55.7153 61 52.9174 61 50V48C61 50.9174 59.8411 53.7153 57.7782 55.7782C55.7153 57.8411 52.9174 59 50 59V59Z" fill="#F2DBCB"></path>
<path d="M36 58C39.3137 58 42 54.4183 42 50C42 45.5817 39.3137 42 36 42C32.6863 42 30 45.5817 30 50C30 54.4183 32.6863 58 36 58Z" fill="#F9BB8B"></path>
<path d="M52 58C55.3137 58 58 54.4183 58 50C58 45.5817 55.3137 42 52 42C48.6863 42 46 45.5817 46 50C46 54.4183 48.6863 58 52 58Z" fill="#F9BB8B"></path>
<path d="M60.8597 30.6236C59.5017 32.2236 58.2187 31.1416 56.8597 32.7466C55.5007 34.3516 56.7837 35.4356 55.4257 37.0396C54.0677 38.6436 52.7867 37.5576 51.4257 39.1606C50.0647 40.7636 51.3587 41.8476 49.9997 43.4496C48.6407 45.0516 44.4047 44.2116 46.0067 45.5666L39.1367 39.7526C40.4927 38.1526 41.7747 39.2366 43.1307 37.6346C44.4867 36.0326 43.2037 34.9476 44.5597 33.3456C45.9157 31.7436 47.1987 32.8286 48.5597 31.2256C49.9207 29.6226 48.6347 28.5356 49.9927 26.9316C51.3507 25.3276 52.6327 26.4126 53.9927 24.8086L60.8597 30.6236Z" fill="#CC2B2B"></path>
<path d="M46.877 60.141C46.9109 60.3794 47.0298 60.5975 47.2116 60.7553C47.3935 60.9131 47.6262 61 47.867 61H56.133C56.3738 61 56.6065 60.9131 56.7884 60.7553C56.9702 60.5975 57.0891 60.3794 57.123 60.141L58 54H46L46.877 60.141Z" fill="#C7A07D"></path>
<path d="M41.123 60.141L42 54H30L30.877 60.141C30.911 60.3794 31.0298 60.5975 31.2116 60.7553C31.3935 60.9131 31.6262 61 31.867 61H40.133C40.3738 61 40.6065 60.9131 40.7884 60.7553C40.9702 60.5975 41.0891 60.3794 41.123 60.141Z" fill="#C7A07D"></path>
<path d="M60 50H28C27.4477 50 27 50.4477 27 51V53C27 53.5523 27.4477 54 28 54H60C60.5523 54 61 53.5523 61 53V51C61 50.4477 60.5523 50 60 50Z" fill="#C7A07D"></path>
<path d="M50.0001 43.4481C51.3561 41.8481 50.0741 40.7611 51.4291 39.1591C52.7841 37.5571 54.0691 38.6411 55.4291 37.0381C56.7891 35.4351 55.5051 34.3491 56.8631 32.7451C58.2211 31.1411 59.5031 32.2261 60.8631 30.6221L57.8091 28.0371C56.4521 29.6421 55.1691 28.5561 53.8091 30.1601C52.4491 31.7641 53.7331 32.8501 52.3751 34.4541C51.0171 36.0581 49.7361 34.9721 48.3751 36.5751C47.0141 38.1781 48.3021 39.2621 46.9461 40.8631C45.5901 42.4641 44.3081 41.3791 42.9531 42.9811L46.0051 45.5641C44.4091 44.2101 48.6481 45.0491 50.0001 43.4481Z" fill="#CC5E3F"></path>
<path d="M41.714 56L42 54H30L30.286 56H41.714Z" fill="#B59272"></path>
<path d="M57.714 56L58 54H46L46.286 56H57.714Z" fill="#B59272"></path>
<path d="M38.6615 46.9478C39.1718 46.7365 39.3285 45.9447 39.0116 45.1793C38.6946 44.4139 38.024 43.9647 37.5138 44.176C37.0035 44.3873 36.8468 45.1791 37.1637 45.9445C37.4807 46.7099 38.1513 47.1591 38.6615 46.9478Z" fill="#F9C8A2"></path>
<path d="M54.4857 46.9478C54.996 46.7365 55.1527 45.9447 54.8358 45.1793C54.5188 44.4139 53.8482 43.9647 53.338 44.176C52.8277 44.3873 52.671 45.1791 52.9879 45.9445C53.3049 46.7099 53.9755 47.1591 54.4857 46.9478Z" fill="#F9C8A2"></path>
<path d="M53.0129 6.80978C52.4631 6.3176 51.7871 5.98832 51.0606 5.85885C50.3341 5.72938 49.5859 5.80484 48.8999 6.07678C48.7578 5.48251 48.4812 4.92877 48.0915 4.45817C47.7018 3.98758 47.2092 3.61268 46.6518 3.36233C46.0945 3.11199 45.4871 2.99287 44.8764 3.01414C44.2657 3.03541 43.6681 3.19651 43.1295 3.48504C42.5909 3.77357 42.1256 4.18183 41.7696 4.67841C41.4135 5.17498 41.1762 5.74663 41.0758 6.34935C40.9753 6.95207 41.0146 7.5698 41.1904 8.15499C41.3662 8.74017 41.6739 9.27722 42.0899 9.72478C42.3724 10.0108 42.5587 10.3777 42.6228 10.7746C42.687 11.1714 42.6259 11.5783 42.4479 11.9388L39.2949 17.9638C41.217 18.4273 42.9973 19.3519 44.4819 20.6578L44.5819 20.7098L47.7639 14.7198C47.9587 14.3682 48.2582 14.0861 48.6208 13.9126C48.9833 13.7391 49.3909 13.6829 49.7869 13.7518C50.6368 13.8728 51.5031 13.7172 52.2578 13.3079C53.0124 12.8987 53.6153 12.2575 53.9775 11.4792C54.3396 10.7008 54.4418 9.8266 54.2688 8.98574C54.0958 8.14488 53.6569 7.38197 53.0169 6.80978H53.0129Z" fill="#F9E3D1"></path>
<path d="M53.013 6.81041C52.913 6.71941 52.801 6.64441 52.693 6.56641C53.0221 7.35474 53.0856 8.22877 52.874 9.05641C52.6313 10.0136 52.044 10.8476 51.2245 11.3986C50.405 11.9496 49.411 12.1788 48.433 12.0424C48.037 11.9732 47.6293 12.0293 47.2667 12.2028C46.9041 12.3763 46.6046 12.6586 46.41 13.0104L44.5 16.0364C44.3681 16.2437 44.1959 16.4224 43.9936 16.5618C43.7913 16.7012 43.563 16.7986 43.3223 16.848C43.0816 16.8975 42.8335 16.898 42.5926 16.8496C42.3517 16.8013 42.1229 16.7049 41.92 16.5664C41.6234 16.3618 41.3163 16.1729 41 16.0004C40.82 15.9064 40.631 15.8384 40.448 15.7534L39.291 17.9644C41.2131 18.4279 42.9934 19.3525 44.478 20.6584L44.578 20.7104L47.76 14.7204C47.9548 14.3689 48.2543 14.0867 48.6169 13.9132C48.9794 13.7398 49.387 13.6835 49.783 13.7524C50.6329 13.8734 51.4992 13.7178 52.2538 13.3086C53.0085 12.8993 53.6114 12.2581 53.9736 11.4798C54.3357 10.7014 54.4379 9.82723 54.2649 8.98636C54.0919 8.1455 53.653 7.38259 53.013 6.81041V6.81041Z" fill="#F9DAC0"></path>
<path d="M15.0274 19.445C14.8084 19.445 14.5955 19.3731 14.4214 19.2404C14.2472 19.1077 14.1214 18.9216 14.0632 18.7105C14.0051 18.4994 14.0179 18.2751 14.0995 18.0719C14.1812 17.8688 14.3273 17.6981 14.5154 17.586L22.2694 12.963C22.4973 12.8273 22.7698 12.7877 23.0269 12.853C23.2841 12.9183 23.5047 13.083 23.6404 13.311C23.776 13.5389 23.8156 13.8114 23.7503 14.0685C23.685 14.3256 23.5203 14.5463 23.2924 14.682L15.5384 19.305C15.3837 19.3967 15.2072 19.4451 15.0274 19.445V19.445Z" fill="#F9E3D1"></path>
<path d="M15.0274 27.7721C14.8084 27.7721 14.5955 27.7002 14.4214 27.5675C14.2472 27.4349 14.1214 27.2487 14.0632 27.0376C14.0051 26.8265 14.0179 26.6022 14.0995 26.399C14.1812 26.1959 14.3273 26.0252 14.5154 25.9131L22.2694 21.2911C22.3822 21.2239 22.5072 21.1796 22.6372 21.1608C22.7672 21.1419 22.8996 21.1488 23.0269 21.1811C23.1543 21.2134 23.2739 21.2705 23.3792 21.3491C23.4845 21.4277 23.5732 21.5262 23.6404 21.6391C23.7075 21.7519 23.7518 21.8769 23.7707 22.0069C23.7895 22.1369 23.7826 22.2693 23.7503 22.3967C23.718 22.524 23.6609 22.6437 23.5823 22.7489C23.5038 22.8542 23.4052 22.9429 23.2924 23.0101L15.5384 27.6321C15.3839 27.7243 15.2073 27.7727 15.0274 27.7721V27.7721Z" fill="#F9E3D1"></path>
<path d="M15.0271 36.1002C14.8078 36.1006 14.5945 36.0289 14.42 35.8962C14.2455 35.7635 14.1194 35.577 14.0613 35.3656C14.0031 35.1543 14.016 34.9296 14.098 34.7262C14.18 34.5229 14.3265 34.3521 14.5151 34.2403L22.2691 29.6173C22.4971 29.4816 22.7696 29.442 23.0267 29.5073C23.2838 29.5726 23.5044 29.7373 23.6401 29.9653C23.7758 30.1932 23.8153 30.4657 23.75 30.7228C23.6848 30.9799 23.5201 31.2006 23.2921 31.3363L15.5381 35.9593C15.3837 36.0518 15.2071 36.1005 15.0271 36.1002V36.1002Z" fill="#F9E3D1"></path>
<path d="M15.0271 44.4303C14.8078 44.4307 14.5945 44.359 14.42 44.2263C14.2455 44.0935 14.1194 43.9071 14.0613 43.6957C14.0031 43.4843 14.016 43.2597 14.098 43.0563C14.18 42.853 14.3265 42.6822 14.5151 42.5703L22.2691 37.9473C22.4971 37.8117 22.7696 37.7721 23.0267 37.8374C23.2838 37.9026 23.5044 38.0674 23.6401 38.2953C23.7758 38.5233 23.8153 38.7958 23.75 39.0529C23.6848 39.31 23.5201 39.5307 23.2921 39.6663L15.5381 44.2893C15.3837 44.3819 15.2071 44.4306 15.0271 44.4303V44.4303Z" fill="#F9E3D1"></path>
<path d="M28.6866 5.70056C26.9307 4.08788 24.7883 2.9557 22.4666 2.41356C22.1526 2.33823 21.8346 2.27156 21.5126 2.21356C19.012 1.78902 16.4445 2.00552 14.0503 2.84282C11.6561 3.68012 9.51325 5.11087 7.82219 7.00131C6.13114 8.89175 4.94707 11.1801 4.3807 13.6525C3.81432 16.1249 3.88414 18.7005 4.58362 21.1386C5.03496 22.5349 5.65736 23.8701 6.43661 25.1136C7.2742 26.3939 7.88323 27.8099 8.23661 29.2986C9.07271 33.0521 9.22683 36.9254 8.69161 40.7336C8.55661 41.4656 8.42961 42.1816 8.35561 42.8996C8.32909 43.1636 8.40854 43.4273 8.57648 43.6328C8.74442 43.8382 8.98709 43.9685 9.25111 43.9951C9.51514 44.0216 9.77888 43.9421 9.98433 43.7742C10.1898 43.6063 10.3201 43.3636 10.3466 43.0996C10.4106 42.4556 10.5256 41.8106 10.6586 41.0996C11.066 38.6943 11.1443 36.2449 10.8916 33.8186C13.2916 29.2616 12.9426 26.3346 12.9266 26.2106C12.8929 25.9475 12.7561 25.7085 12.5463 25.5463C12.3364 25.3841 12.0707 25.3119 11.8076 25.3456C11.5445 25.3792 11.3056 25.5161 11.1434 25.7259C10.9811 25.9358 10.9089 26.2015 10.9426 26.4646C10.9732 27.6474 10.7815 28.8254 10.3776 29.9376C10.3206 29.6026 10.2636 29.2656 10.2036 28.9376C9.81431 27.2238 9.12576 25.5921 8.16961 24.1176C7.47283 23.0121 6.91368 21.8256 6.50462 20.5846C5.89927 18.4725 5.8391 16.2415 6.32973 14.0998C6.82035 11.9582 7.84576 9.97589 9.31019 8.338C10.7746 6.7001 12.6303 5.46007 14.7038 4.73374C16.7774 4.00741 19.0012 3.81847 21.1676 4.18456C21.4486 4.23256 21.7266 4.29056 22.0086 4.35756C23.9974 4.82168 25.8325 5.79208 27.3356 7.17456C28.964 8.71522 30.1673 10.65 30.8291 12.7918C31.4909 14.9335 31.5889 17.2098 31.1136 19.4006C30.1534 24.9972 28.674 30.4923 26.6946 35.8146C26.2296 37.0456 25.7846 38.2826 25.3396 39.5216C24.9636 40.5656 24.5876 41.6116 24.1996 42.6526C24.1536 42.7756 24.1323 42.9065 24.1369 43.0378C24.1415 43.1691 24.172 43.2982 24.2265 43.4177C24.281 43.5372 24.3585 43.6448 24.4546 43.7343C24.5507 43.8239 24.6635 43.8936 24.7866 43.9396C24.8987 43.9808 25.0172 44.0022 25.1366 44.0026C25.3403 44.0024 25.539 43.9401 25.7063 43.8239C25.8735 43.7078 26.0013 43.5433 26.0726 43.3526C26.4646 42.3036 26.8436 41.2526 27.2216 40.1966C27.6626 38.9706 28.1046 37.7426 28.5656 36.5236C30.5889 31.086 32.1011 25.4717 33.0826 19.7536C33.1376 19.4476 33.1826 19.1436 33.2206 18.8396C36.0729 18.2257 39.0494 18.6072 41.6546 19.9206C43.3311 20.8641 44.7885 22.1523 45.9308 23.7002C47.0731 25.248 47.8743 27.0204 48.2816 28.9006C48.2816 28.9516 48.2816 29.0006 48.2816 29.0526C48.3064 29.3263 48.2763 29.6022 48.1931 29.8642C48.1099 30.1262 47.9753 30.369 47.7972 30.5783C47.619 30.7876 47.4009 30.9593 47.1557 31.0833C46.9104 31.2073 46.6428 31.2812 46.3686 31.3006C45.368 31.4277 44.4514 31.9254 43.7999 32.6954C43.1484 33.4654 42.8093 34.4517 42.8496 35.4596C42.8751 35.7325 42.8459 36.0077 42.7638 36.2692C42.6817 36.5308 42.5483 36.7733 42.3714 36.9827C42.1946 37.1921 41.9777 37.3641 41.7336 37.4887C41.4895 37.6134 41.223 37.6881 40.9496 37.7086C39.9468 37.8297 39.0275 38.3273 38.3776 39.1006C38.2923 39.2006 38.2274 39.3164 38.1868 39.4415C38.1462 39.5665 38.1307 39.6983 38.141 39.8294C38.1514 39.9605 38.1875 40.0882 38.2472 40.2053C38.3069 40.3225 38.3891 40.4267 38.4891 40.5121C38.5891 40.5974 38.705 40.6622 38.83 40.7028C38.9551 40.7434 39.0869 40.759 39.218 40.7486C39.349 40.7383 39.4768 40.7022 39.5939 40.6425C39.711 40.5828 39.8153 40.5006 39.9006 40.4006C40.0762 40.1891 40.2932 40.0158 40.5383 39.8913C40.7834 39.7668 41.0513 39.6937 41.3256 39.6766C42.3259 39.5495 43.2422 39.0521 43.8936 38.2825C44.5451 37.5129 44.8844 36.5271 44.8446 35.5196C44.8187 35.2461 44.8478 34.9703 44.93 34.7082C45.0122 34.4462 45.146 34.2032 45.3235 33.9936C45.501 33.784 45.7186 33.6119 45.9635 33.4876C46.2084 33.3633 46.4757 33.2891 46.7496 33.2696C47.7506 33.1414 48.6672 32.643 49.3191 31.8727C49.971 31.1024 50.3108 30.1159 50.2716 29.1076C50.2461 28.8337 50.2756 28.5575 50.3582 28.2951C50.4408 28.0327 50.5749 27.7895 50.7527 27.5796C50.9304 27.3697 51.1483 27.1974 51.3935 27.0727C51.6387 26.948 51.9063 26.8735 52.1806 26.8536C52.838 26.7603 53.4654 26.5177 54.0146 26.1446L56.1836 27.9806C55.9954 28.0382 55.8041 28.0853 55.6106 28.1216C54.6101 28.2497 53.6938 28.7478 53.0422 29.5177C52.3905 30.2877 52.0507 31.2736 52.0896 32.2816C52.1152 32.5554 52.0859 32.8317 52.0035 33.0941C51.921 33.3565 51.787 33.5999 51.6093 33.8099C51.4316 34.0199 51.2138 34.1923 50.9687 34.3171C50.7235 34.4419 50.456 34.5165 50.1816 34.5366C49.1809 34.6636 48.2642 35.1613 47.6125 35.9313C46.9608 36.7013 46.6215 37.6876 46.6616 38.6956C46.6876 38.9686 46.6589 39.244 46.577 39.5058C46.4951 39.7675 46.3617 40.0103 46.1848 40.2198C46.0078 40.4293 45.7907 40.6013 45.5463 40.7258C45.3019 40.8502 45.0351 40.9246 44.7616 40.9446C43.7606 41.0677 42.8434 41.5654 42.1946 42.3376C42.0232 42.5399 41.9391 42.8021 41.9609 43.0664C41.9828 43.3308 42.1088 43.5756 42.3111 43.7471C42.5135 43.9185 42.7757 44.0026 43.04 43.9807C43.3043 43.9589 43.5492 43.8329 43.7206 43.6306C43.8966 43.4193 44.1138 43.2461 44.359 43.1216C44.6042 42.9971 44.8722 42.9239 45.1466 42.9066C46.1471 42.7801 47.0637 42.2829 47.7151 41.5131C48.3665 40.7434 48.7054 39.7572 48.6646 38.7496C48.6396 38.4763 48.6692 38.2007 48.7519 37.939C48.8345 37.6773 48.9684 37.4346 49.1459 37.2253C49.3233 37.0159 49.5407 36.844 49.7853 36.7195C50.0299 36.5951 50.2969 36.5207 50.5706 36.5006C51.5716 36.3733 52.4885 35.8755 53.1405 35.1054C53.7925 34.3353 54.1322 33.3488 54.0926 32.3406C54.0664 32.0664 54.0953 31.7897 54.1775 31.5268C54.2597 31.2639 54.3936 31.0201 54.5714 30.8097C54.7491 30.5992 54.9671 30.4264 55.2125 30.3014C55.458 30.1764 55.7259 30.1016 56.0006 30.0816C56.6571 29.9871 57.2834 29.7439 57.8316 29.3706L59.2476 30.5706C59.0573 30.6264 58.864 30.6715 58.6686 30.7056C57.6678 30.8335 56.7511 31.3316 56.0992 32.1018C55.4473 32.872 55.1075 33.8583 55.1466 34.8666C55.1722 35.1404 55.1429 35.4166 55.0604 35.6789C54.978 35.9413 54.8439 36.1846 54.6662 36.3945C54.4886 36.6044 54.2708 36.7767 54.0256 36.9014C53.7805 37.0261 53.5129 37.1006 53.2386 37.1206C52.2358 37.2447 51.3175 37.7451 50.6696 38.5206C50.5065 38.7244 50.4295 38.984 50.4552 39.2439C50.4809 39.5037 50.6072 39.7432 50.8072 39.9111C51.0071 40.0791 51.2648 40.1622 51.5252 40.1426C51.7856 40.1231 52.028 40.0025 52.2006 39.8066C52.3765 39.5948 52.5938 39.4212 52.8392 39.2965C53.0846 39.1719 53.3529 39.0987 53.6276 39.0816C54.6286 38.9538 55.5454 38.4558 56.1973 37.6856C56.8492 36.9153 57.189 35.9289 57.1496 34.9206C57.1237 34.6465 57.1529 34.3701 57.2353 34.1075C57.3177 33.8449 57.4518 33.6014 57.6296 33.3914C57.8075 33.1813 58.0255 33.0089 58.2709 32.8842C58.5163 32.7596 58.7841 32.6853 59.0586 32.6656C60.0606 32.5422 60.9785 32.0437 61.6276 31.2706C61.7127 31.1703 61.7772 31.0542 61.8174 30.929C61.8576 30.8038 61.8727 30.6719 61.8618 30.5408C61.8509 30.4097 61.8143 30.2821 61.7541 30.1652C61.6938 30.0483 61.6111 29.9444 61.5106 29.8596L58.4586 27.2766L54.6446 24.0476C54.5444 23.9626 54.4284 23.8982 54.3032 23.8581C54.1781 23.818 54.0463 23.803 53.9154 23.8139C53.7844 23.8247 53.6569 23.8613 53.5401 23.9215C53.4233 23.9816 53.3195 24.0642 53.2346 24.1646C53.0584 24.3766 52.8408 24.5506 52.5951 24.6757C52.3494 24.8009 52.0808 24.8747 51.8056 24.8926C50.9111 25.0099 50.0813 25.4223 49.4476 26.0646C48.6383 23.985 47.4017 22.0983 45.8176 20.5266L48.6536 15.1876C48.7545 15.0199 48.9047 14.8874 49.0837 14.8083C49.2626 14.7292 49.4617 14.7073 49.6536 14.7456C50.8726 14.9079 52.1089 14.6193 53.13 13.9341C54.1512 13.2488 54.8868 12.2141 55.1986 11.0246C55.4046 10.2198 55.4063 9.37639 55.2035 8.57084C55.0008 7.76529 54.6 7.02314 54.0376 6.41179C53.4753 5.80044 52.7691 5.33925 51.9832 5.0701C51.1974 4.80094 50.3567 4.73236 49.5376 4.87056C49.184 4.11886 48.6482 3.46741 47.9788 2.97537C47.3095 2.48333 46.5279 2.16629 45.7049 2.05303C44.8819 1.93978 44.0437 2.03391 43.2664 2.32686C42.489 2.61982 41.7971 3.10233 41.2536 3.73056C40.4527 4.66424 40.0213 5.85887 40.041 7.08885C40.0608 8.31884 40.5302 9.49904 41.3606 10.4066C41.5015 10.5421 41.5969 10.7179 41.6338 10.9099C41.6707 11.1018 41.6472 11.3005 41.5666 11.4786L38.7666 16.8256C36.9833 16.4939 35.1557 16.4774 33.3666 16.7766C33.4203 14.7036 33.0305 12.643 32.2234 10.7329C31.4163 8.82273 30.2104 7.10701 28.6866 5.70056V5.70056ZM43.3296 12.4006C43.6057 11.858 43.705 11.2427 43.6138 10.6409C43.5225 10.039 43.2451 9.48084 42.8206 9.04456C42.5027 8.70984 42.2664 8.30629 42.13 7.8653C41.9935 7.42431 41.9607 6.95779 42.0341 6.50204C42.1074 6.0463 42.2849 5.61362 42.5528 5.2377C42.8207 4.86177 43.1717 4.55273 43.5785 4.33464C43.9854 4.11654 44.4371 3.99527 44.8984 3.98026C45.3598 3.96525 45.8184 4.05692 46.2385 4.24811C46.6587 4.43931 47.0291 4.72488 47.3208 5.0826C47.6125 5.44032 47.8178 5.86055 47.9206 6.31056C47.9538 6.44936 48.0163 6.57945 48.1039 6.6921C48.1915 6.80474 48.3022 6.89733 48.4286 6.96364C48.5549 7.02995 48.694 7.06844 48.8365 7.07654C48.979 7.08463 49.1216 7.06213 49.2546 7.01056C49.6814 6.84376 50.1408 6.77714 50.5974 6.81585C51.054 6.85456 51.4956 6.99756 51.8882 7.23384C52.2809 7.47011 52.614 7.79336 52.862 8.17867C53.1101 8.56399 53.2663 9.00109 53.3188 9.45632C53.3713 9.91154 53.3185 10.3727 53.1647 10.8044C53.0108 11.236 52.76 11.6266 52.4314 11.946C52.1028 12.2654 51.7053 12.5051 51.2695 12.6467C50.8337 12.7882 50.3712 12.8279 49.9176 12.7626C49.3181 12.6627 48.7024 12.7527 48.1564 13.0198C47.6105 13.287 47.1617 13.7179 46.8726 14.2526L44.2496 19.2006C43.7202 18.8097 43.163 18.4578 42.5826 18.1476C41.9863 17.842 41.3687 17.5799 40.7346 17.3636L43.3296 12.4006Z" fill="black"></path>
<path d="M23.8991 33.3649C23.8241 33.6192 23.8532 33.8929 23.98 34.1258C24.1067 34.3588 24.3208 34.5318 24.5751 34.6069C24.6669 34.6345 24.7623 34.6483 24.8581 34.6479C25.0738 34.6479 25.2838 34.5782 25.4566 34.4492C25.6294 34.3201 25.7559 34.1387 25.8171 33.9319C26.5621 31.4099 27.6831 27.6969 28.7981 24.3239C30.0331 20.5899 30.6041 17.3719 29.3691 13.8069C28.8266 12.1103 27.8946 10.5643 26.6477 9.29239C25.4008 8.02048 23.8736 7.05798 22.1881 6.48186C21.9751 6.41686 21.7591 6.35786 21.5361 6.30386C21.3131 6.24986 21.0681 6.20386 20.8241 6.15686C18.6266 5.78895 16.3691 6.09708 14.3505 7.04046C12.3319 7.98385 10.6474 9.51801 9.51995 11.4399C8.3925 13.3617 7.87528 15.5807 8.03674 17.803C8.1982 20.0253 9.03074 22.1462 10.4241 23.8849C10.5062 23.9874 10.6077 24.0728 10.7228 24.1362C10.8379 24.1995 10.9643 24.2396 11.0948 24.2541C11.2254 24.2685 11.3575 24.2572 11.4837 24.2206C11.6099 24.184 11.7276 24.1229 11.8301 24.0409C11.9327 23.9588 12.0181 23.8573 12.0814 23.7422C12.1448 23.6272 12.1849 23.5007 12.1993 23.3702C12.2138 23.2396 12.2025 23.1075 12.1659 22.9813C12.1293 22.8551 12.0682 22.7374 11.9861 22.6349C10.8469 21.2134 10.1657 19.4798 10.0328 17.663C9.8998 15.8462 10.3213 14.0318 11.2415 12.4597C12.1617 10.8875 13.5374 9.63167 15.1866 8.85804C16.8358 8.08441 18.6809 7.82945 20.4781 8.12686C20.6781 8.16286 20.8781 8.20186 21.0661 8.24786C21.2541 8.29386 21.4251 8.34086 21.5991 8.39386C22.984 8.87716 24.2368 9.67741 25.2575 10.7308C26.2782 11.7841 27.0387 13.0615 27.4781 14.4609C28.5321 17.5059 28.0381 20.2519 26.8981 23.6949C25.7741 27.0999 24.6461 30.8299 23.8991 33.3649Z" fill="black"></path>
<path d="M23.6391 12.311C23.5719 12.1981 23.4832 12.0996 23.3779 12.021C23.2727 11.9424 23.153 11.8853 23.0257 11.853C22.8984 11.8207 22.7659 11.8138 22.6359 11.8326C22.5059 11.8515 22.3809 11.8958 22.2681 11.963L14.5141 16.586C14.2861 16.7217 14.1214 16.9423 14.0561 17.1994C13.9909 17.4566 14.0304 17.7291 14.1661 17.957C14.3017 18.185 14.5224 18.3497 14.7795 18.415C15.0366 18.4802 15.3091 18.4407 15.5371 18.305L23.2911 13.682C23.404 13.6149 23.5025 13.5261 23.5811 13.4209C23.6597 13.3156 23.7168 13.1959 23.7491 13.0686C23.7814 12.9413 23.7883 12.8089 23.7695 12.6789C23.7506 12.5489 23.7063 12.4239 23.6391 12.311Z" fill="black"></path>
<path d="M23.6404 20.6391C23.5732 20.5263 23.4845 20.4277 23.3792 20.3491C23.274 20.2705 23.1543 20.2134 23.027 20.1811C22.8996 20.1488 22.7672 20.1419 22.6372 20.1608C22.5072 20.1796 22.3822 20.224 22.2694 20.2911L14.5154 24.9131C14.3273 25.0252 14.1812 25.196 14.0995 25.3991C14.0179 25.6023 14.0051 25.8266 14.0632 26.0377C14.1214 26.2488 14.2472 26.4349 14.4214 26.5676C14.5955 26.7003 14.8084 26.7722 15.0274 26.7721C15.2073 26.7728 15.3839 26.7244 15.5384 26.6321L23.2924 22.0101C23.4053 21.943 23.5038 21.8543 23.5824 21.749C23.661 21.6438 23.7181 21.5241 23.7504 21.3967C23.7827 21.2694 23.7896 21.137 23.7707 21.007C23.7519 20.877 23.7076 20.752 23.6404 20.6391V20.6391Z" fill="black"></path>
<path d="M23.6401 28.9673C23.5729 28.8544 23.4842 28.7558 23.379 28.6772C23.2737 28.5987 23.154 28.5416 23.0267 28.5093C22.8994 28.4769 22.7669 28.47 22.637 28.4889C22.507 28.5078 22.382 28.5521 22.2691 28.6193L14.5151 33.2423C14.3265 33.3542 14.18 33.5249 14.098 33.7283C14.016 33.9316 14.0031 34.1563 14.0613 34.3677C14.1194 34.5791 14.2455 34.7655 14.42 34.8982C14.5945 35.0309 14.8078 35.1026 15.0271 35.1023C15.2071 35.1025 15.3837 35.0538 15.5381 34.9613L23.2921 30.3383C23.405 30.2711 23.5035 30.1824 23.5821 30.0771C23.6607 29.9719 23.7178 29.8522 23.7501 29.7249C23.7824 29.5975 23.7894 29.4651 23.7705 29.3351C23.7516 29.2051 23.7073 29.0801 23.6401 28.9673V28.9673Z" fill="black"></path>
<path d="M60 45H57.816C57.3087 43.8625 56.4973 42.8871 55.4711 42.1813C54.4448 41.4755 53.2437 41.0667 52 41C50.7563 41.0667 49.5552 41.4755 48.5289 42.1813C47.5027 42.8871 46.6913 43.8625 46.184 45H41.816C41.3087 43.8625 40.4973 42.8871 39.4711 42.1813C38.4448 41.4755 37.2437 41.0667 36 41C34.7563 41.0667 33.5552 41.4755 32.5289 42.1813C31.5027 42.8871 30.6913 43.8625 30.184 45H4C3.46957 45 2.96086 45.2107 2.58579 45.5858C2.21071 45.9609 2 46.4696 2 47V50C2.00344 53.1815 3.26883 56.2318 5.51852 58.4815C7.76821 60.7312 10.8185 61.9966 14 62H56.133C56.6139 61.9982 57.0782 61.8239 57.4415 61.5088C57.8049 61.1937 58.0431 60.7588 58.113 60.283L58.868 55H60C60.5304 55 61.0391 54.7893 61.4142 54.4142C61.7893 54.0391 62 53.5304 62 53V47C62 46.4696 61.7893 45.9609 61.4142 45.5858C61.0391 45.2107 60.5304 45 60 45ZM60 47V49H58.954C58.8948 48.3237 58.7736 47.6542 58.592 47H60ZM52 43C53.812 43 55.4 44.361 56.274 46.387C56.629 47.2188 56.8546 48.1 56.943 49H47.057C47.1452 48.1018 47.3701 47.2223 47.724 46.392V46.387C48.6 44.361 50.188 43 52 43ZM45.408 47C45.2264 47.6542 45.1052 48.3237 45.046 49H42.954C42.8948 48.3237 42.7736 47.6542 42.592 47H45.408ZM36 43C37.812 43 39.4 44.361 40.274 46.387C40.629 47.2188 40.8546 48.1 40.943 49H31.057C31.1452 48.1018 31.3701 47.2223 31.724 46.392V46.387C32.6 44.361 34.188 43 36 43ZM4 50V47H6C6 54.094 9.906 58 17 58C17.2652 58 17.5196 57.8946 17.7071 57.7071C17.8946 57.5196 18 57.2652 18 57C18 56.7348 17.8946 56.4804 17.7071 56.2929C17.5196 56.1054 17.2652 56 17 56C11.028 56 8 52.972 8 47H29.408C29.2264 47.6542 29.1052 48.3237 29.046 49H28C27.4696 49 26.9609 49.2107 26.5858 49.5858C26.2107 49.9609 26 50.4696 26 51V53C26 53.5304 26.2107 54.0391 26.5858 54.4142C26.9609 54.7893 27.4696 55 28 55H29.132L29.846 60H14C11.3487 59.9971 8.80688 58.9426 6.93215 57.0679C5.05742 55.1931 4.00291 52.6513 4 50V50ZM45.132 55L45.846 60H42.154L42.868 55H45.132ZM40.132 60H31.867L31.153 55H40.847L40.132 60ZM56.132 60H47.867L47.153 55H56.847L56.132 60ZM28 53V51H60V53H28Z" fill="black"></path>
<path d="M22.2691 36.9473L14.5151 41.5703C14.3265 41.6822 14.18 41.853 14.098 42.0563C14.016 42.2597 14.0031 42.4843 14.0613 42.6957C14.1194 42.9071 14.2455 43.0935 14.42 43.2263C14.5945 43.359 14.8078 43.4307 15.0271 43.4303C15.2071 43.4306 15.3837 43.3819 15.5381 43.2893L23.2921 38.6663C23.5201 38.5307 23.6848 38.31 23.75 38.0529C23.8153 37.7958 23.7758 37.5233 23.6401 37.2953C23.5044 37.0674 23.2838 36.9026 23.0267 36.8374C22.7696 36.7721 22.4971 36.8117 22.2691 36.9473V36.9473Z" fill="black"></path>
<path d="M43.8185 29.2663C43.8158 29.3976 43.8391 29.5282 43.8869 29.6505C43.9347 29.7728 44.0062 29.8846 44.0972 29.9793C44.1882 30.074 44.2969 30.1499 44.4173 30.2025C44.5376 30.2552 44.6671 30.2837 44.7985 30.2863H44.8185C45.0801 30.2863 45.3313 30.1839 45.5183 30.0008C45.7052 29.8178 45.813 29.5688 45.8185 29.3073C45.8616 27.2151 45.1418 25.1787 43.7935 23.5783C43.6214 23.3793 43.3779 23.2562 43.1157 23.2355C42.8535 23.2149 42.5937 23.2983 42.3926 23.4679C42.1915 23.6374 42.0652 23.8793 42.0413 24.1413C42.0173 24.4032 42.0975 24.664 42.2645 24.8673C43.2995 26.0962 43.8519 27.6599 43.8185 29.2663Z" fill="black"></path>
<path d="M41.4906 20.8911C41.3018 20.7092 41.049 20.6087 40.7868 20.6114C40.5246 20.614 40.2739 20.7195 40.0888 20.9052C39.9036 21.0909 39.7988 21.3419 39.7969 21.6041C39.795 21.8663 39.8962 22.1188 40.0786 22.3071L40.4286 22.6551C40.6175 22.837 40.8702 22.9375 41.1324 22.9348C41.3946 22.9322 41.6453 22.8267 41.8305 22.641C42.0156 22.4553 42.1204 22.2043 42.1223 21.9421C42.1242 21.6799 42.0231 21.4274 41.8406 21.2391L41.4906 20.8911Z" fill="black"></path>
<path d="M22 56H21C20.7348 56 20.4804 56.1054 20.2929 56.2929C20.1054 56.4804 20 56.7348 20 57C20 57.2652 20.1054 57.5196 20.2929 57.7071C20.4804 57.8946 20.7348 58 21 58H22C22.2652 58 22.5196 57.8946 22.7071 57.7071C22.8946 57.5196 23 57.2652 23 57C23 56.7348 22.8946 56.4804 22.7071 56.2929C22.5196 56.1054 22.2652 56 22 56Z" fill="black"></path>
</g>
<defs>
<clipPath id="clip0_410_16617">
<rect width="64" height="64" fill="white"></rect>
</clipPath>
</defs>
</svg>