<svg width="20" height="20" viewBox="0 0 20 20" fill="none" xmlns="http://www.w3.org/2000/svg">
  <path fill-rule="evenodd" clip-rule="evenodd" d="M13.5466 3.53582C13.817 3.80375 13.8189 4.23812 13.5447 4.50605L7.95409 10.0194L13.5448 15.4952L13.6076 15.5654C13.8168 15.8343 13.7946 16.2198 13.5467 16.4654C13.2752 16.7333 12.8337 16.7343 12.5605 16.4663L6.50194 10.5322L6.43916 10.4622C6.41592 10.4322 6.39539 10.4008 6.37783 10.3683C6.31084 10.2595 6.27692 10.1364 6.27692 10.0136C6.27692 9.83806 6.34567 9.66157 6.48229 9.52806L12.5604 3.53308L12.632 3.4719C12.906 3.26807 13.2978 3.28938 13.5466 3.53582Z" fill="white"/>
</svg>
