<svg width="34" height="34" viewBox="0 0 24 24" fill="none" xmlns="http://www.w3.org/2000/svg">
  <path d="M12 14C13.6569 14 15 12.6569 15 11V5C15 3.34315 13.6569 2 12 2C10.3431 2 9 3.34315 9 5V11C9 12.6569 10.3431 14 12 14Z" fill="black"/>
  <path d="M18 11C18 14.3137 15.3137 17 12 17C8.68629 17 6 14.3137 6 11H7.5C7.5 13.4853 9.51472 15.5 12 15.5C14.4853 15.5 16.5 13.4853 16.5 11H18Z" fill="black"/>
  <path d="M11 18H13V20H11V18Z" fill="black"/>
  <path d="M8 20H16V22H8V20Z" fill="black"/>
</svg>
